<!-- Generated by scripts/generate-icons.sh from assets/icon/mark.svg. Do not edit. -->
<!-- 筆の一点（「、」）の一画。起筆（左上）が丸く太く、終筆（右下）が鋭く抜ける。
     issue #89 のデザイン確定（B 案: 和紙 × 墨 ＋ 朱の落款）で採用したシルエット。
     形の正はこのファイルだけ。色違いのレイヤーと tray.png は scripts/generate-icons.sh が生成する。 -->
<svg width="1024" height="1024" viewBox="0 0 1024 1024" fill="none" xmlns="http://www.w3.org/2000/svg">
<path d="M376.1 200.7C369.5 201.5 362.5 204 357.7 205.7C352.8 207.3 350.2 209 347.1 210.6C344 212.3 344.9 210.6 339.2 215.6C333.5 220.6 320.3 232.2 312.8 240.5C305.4 248.8 300.1 257 294.4 265.3C288.7 273.6 282.5 281.9 278.6 290.2C274.6 298.5 272.8 306.8 270.6 315C268.4 323.3 267.1 331.6 265.4 339.9C263.6 348.2 261 356.5 260.1 364.8C259.2 373 259.7 381.3 260.1 389.6C260.5 397.9 261.4 406.2 262.7 414.5C264.1 422.8 266.2 431 268 439.3C269.8 447.6 270.6 455.9 273.3 464.2C275.9 472.5 280.3 480.8 283.8 489C287.3 497.3 290.4 505.6 294.4 513.9C298.3 522.2 302.7 530.5 307.6 538.8C312.4 547 317.7 555.3 323.4 563.6C329.1 571.9 335.3 580.2 341.9 588.5C348.4 596.7 355 605 363 613.3C370.9 621.6 379.7 629.9 389.3 638.2C399 646.5 410 654.7 421 663C432 671.3 442.5 679.6 455.3 687.9C468 696.2 482.1 704.5 497.5 712.7C512.8 721 528.7 729.3 547.6 737.6C566.5 745.9 586.7 754.6 610.9 762.5C635 770.3 674.6 780.3 692.6 784.8C710.6 789.4 708.9 788.1 719 789.8C729.1 791.5 739.6 793.1 753.3 794.8C766.9 796.4 789.8 798.9 800.7 799.7C811.7 800.6 816.1 800.6 819.2 799.7C822.3 798.9 820.5 796.4 819.2 794.8C817.9 793.1 813.5 791.5 811.3 789.8C809.1 788.1 812.6 789.4 806 784.8C799.4 780.3 783.2 770.3 771.7 762.5C760.3 754.6 748.9 745.9 737.4 737.6C726 729.3 714.1 721 703.2 712.7C692.2 704.5 682.1 696.2 671.5 687.9C661 679.6 649.5 671.3 639.9 663C630.2 654.7 622.3 646.5 613.5 638.2C604.7 629.9 595.5 621.6 587.1 613.3C578.8 605 570.9 596.7 563.4 588.5C555.9 580.2 548.9 571.9 542.3 563.6C535.7 555.3 530 547 523.8 538.8C517.7 530.5 510.6 522.2 505.4 513.9C500.1 505.6 496.6 497.3 492.2 489C487.8 480.8 482.9 472.5 479 464.2C475 455.9 472 447.6 468.4 439.3C464.9 431 461 422.8 457.9 414.5C454.8 406.2 452.2 397.9 450 389.6C447.8 381.3 446 373 444.7 364.8C443.4 356.5 442.9 348.2 442.1 339.9C441.2 331.6 439.9 323.3 439.4 315C439 306.8 439.4 298.5 439.4 290.2C439.4 281.9 438.6 273.6 439.4 265.3C440.3 257 446.9 248.8 444.7 240.5C442.5 232.2 430.2 220.6 426.2 215.6C422.3 210.6 423.2 212.3 421 210.6C418.8 209 417 207.3 413.1 205.7C409.1 204 403.4 201.5 397.2 200.7C391.1 199.9 382.7 199.9 376.1 200.7Z" fill="#16130F"/>
</svg>
